<svg width="22" height="22" viewBox="0 0 22 22" fill="none" xmlns="http://www.w3.org/2000/svg">
<path d="M21.707 10.293L19.707 8.29298L11.707 0.292985C11.5195 0.105514 11.2652 0.000198364 11 0.000198364C10.7348 0.000198364 10.4805 0.105514 10.293 0.292985L2.29301 8.29298L0.29301 10.293C0.110852 10.4816 0.010058 10.7342 0.0123364 10.9964C0.0146148 11.2586 0.119784 11.5094 0.305192 11.6948C0.4906 11.8802 0.741412 11.9854 1.00361 11.9877C1.26581 11.9899 1.51841 11.8891 1.70701 11.707L2.00001 11.414V21C2.00001 21.2652 2.10537 21.5196 2.2929 21.7071C2.48044 21.8946 2.73479 22 3.00001 22H19C19.2652 22 19.5196 21.8946 19.7071 21.7071C19.8947 21.5196 20 21.2652 20 21V11.414L20.293 11.707C20.4816 11.8891 20.7342 11.9899 20.9964 11.9877C21.2586 11.9854 21.5094 11.8802 21.6948 11.6948C21.8802 11.5094 21.9854 11.2586 21.9877 10.9964C21.99 10.7342 21.8892 10.4816 21.707 10.293ZM18 20H4.00001V9.41398L11 2.41398L18 9.41398V20Z" fill="#B0ACB3"/>
</svg>
