<svg width="28" height="28" fill="none" xmlns="http://www.w3.org/2000/svg"><path d="M12.833 8.167h2.334V10.5a1.167 1.167 0 102.333 0V8.167h2.333a1.167 1.167 0 100-2.334H17.5V3.5a1.167 1.167 0 10-2.333 0v2.333h-2.334a1.167 1.167 0 000 2.334z" fill="#fff"/><path d="M10.5 18.667h12.833a1.167 1.167 0 001.14-.914l2.334-10.5a1.166 1.166 0 00-.887-1.393 1.167 1.167 0 00-1.393.887L22.4 16.333H10.267L6.97 2.071a1.167 1.167 0 00-1.138-.904h-3.5a1.167 1.167 0 000 2.333H4.9l3.19 13.806a3.492 3.492 0 002.41 6.027h12.833a1.167 1.167 0 100-2.333H10.5a1.167 1.167 0 110-2.333zM11.667 26.833a1.167 1.167 0 100-2.333 1.167 1.167 0 000 2.333zM21 26.833a1.167 1.167 0 100-2.333 1.167 1.167 0 000 2.333z" fill="#fff"/></svg>