<svg width="24" height="24" fill="none" xmlns="http://www.w3.org/2000/svg"><path d="M19 20.502v-1.406h1.395v-5.905a8.396 8.396 0 00-3.918-7.097h.93a3.3 3.3 0 003.296-3.297h-1.406c0 1.043-.848 1.89-1.89 1.89h-.862c.602-.799.932-1.775.932-2.78V0H6.523v1.906c0 1.006.33 1.982.932 2.781H14v1.407H7.523a8.396 8.396 0 00-3.918 7.097v5.905H5v1.406H3.561A2.564 2.564 0 001.75 22.95V24H22.25v-1.05a2.564 2.564 0 00-1.812-2.448H19zm-8.34-3.799a2.795 2.795 0 01-2.792-2.792v-2.614h2.043c.83 0 1.577.365 2.089.942a2.786 2.786 0 012.09-.942h2.042v2.614a2.795 2.795 0 01-2.793 2.792h-.636V19.5h-1.406v-2.797h-.636z" fill="#FF7F23"/><path d="M11.297 15.297v-1.208c0-.764-.622-1.386-1.386-1.386h-.636v1.208c0 .764.621 1.386 1.386 1.386h.636zM13.34 15.297c.764 0 1.386-.622 1.386-1.386v-1.208h-.637c-.764 0-1.386.622-1.386 1.386v1.208h.636z" fill="#FF7F23"/></svg>