<svg width="24" height="24" fill="none" xmlns="http://www.w3.org/2000/svg"><g clip-path="url(#a)" fill="#FF7F23"><path d="M8.203 2.27c3.043 0 5.612 2.072 6.369 4.88l1.146-1.147.994.994L14.8 8.911v1.792h.583a4.542 4.542 0 004.537-4.536v-3.37h-3.37c-.842 0-1.63.23-2.307.632A4.544 4.544 0 009.842 0h-3.37v2.5a6.582 6.582 0 011.73-.23zM10.181 14.54H3.013v4.27A5.196 5.196 0 008.202 24c.918 0 1.781-.24 2.53-.66a6.74 6.74 0 01-1.912-4.72c0-1.492.478-2.91 1.361-4.08z"/><path d="M3.012 13.135h8.596a6.717 6.717 0 011.785-.934V8.866a5.196 5.196 0 00-5.19-5.19 5.196 5.196 0 00-5.19 5.19v4.269zM15.607 13.239a5.38 5.38 0 100 10.76 5.38 5.38 0 000-10.76zm2.399 6.084H16.31v1.695h-1.406v-1.695h-1.695v-1.407h1.695v-1.695h1.406v1.695h1.696v1.407z"/></g><defs><clipPath id="a"><path fill="#fff" d="M0 0H24V24H0z"/></clipPath></defs></svg>