<svg width="24" height="24" fill="none" xmlns="http://www.w3.org/2000/svg"><g clip-path="url(#a)" fill="#FF7F23"><path d="M12.422 22a3.41 3.41 0 013.407-3.406h1.253v-7.265c0-.94-.421-1.815-1.155-2.402l-.955-.765V6.703H4.282v1.46l-.956.764a3.062 3.062 0 00-1.155 2.402V24h10.903a3.386 3.386 0 01-.652-2zM8.03 12.27l1.63 4.717 1.56-4.697 1.334.443-2.236 6.733h-1.29L6.702 12.73l1.33-.46zM12.451 0h3.47v5.297h-3.47V0zM8.208 0h2.837v5.297H8.208V0zM3.333 0h3.469v5.297h-3.47V0zM21.829 22a2 2 0 00-2-2h-1.297v4h1.297a2 2 0 002-2z"/><path d="M17.125 24v-4H15.83a2 2 0 000 4h1.296z"/></g><defs><clipPath id="a"><path fill="#fff" d="M0 0H24V24H0z"/></clipPath></defs></svg>