<svg width="28" height="28" fill="none" xmlns="http://www.w3.org/2000/svg"><path d="M21.087 3.7A10.27 10.27 0 0013.444.89a10.385 10.385 0 00-9.743 10.45 10.258 10.258 0 002.913 7 49.49 49.49 0 014.135 4.9c.565.747 1.11 1.503 1.65 2.265l.888 1.254a.874.874 0 001.427 0l1.306-1.837c.399-.565.81-1.123 1.243-1.673 1.436-1.864 2.966-3.604 4.408-5.208a10.284 10.284 0 00-.584-14.34zM14 15.75A4.375 4.375 0 1114 7a4.375 4.375 0 010 8.75z" fill="#309F5F"/><path d="M14 14a2.625 2.625 0 100-5.25A2.625 2.625 0 0014 14z" fill="#309F5F"/></svg>