<svg width="16" height="16" fill="none" xmlns="http://www.w3.org/2000/svg"><g clip-path="url(#a)" fill="#FF7F23"><path d="M12.05 2.115A5.868 5.868 0 007.682.509 5.934 5.934 0 002.115 6.48a5.861 5.861 0 001.664 4 28.286 28.286 0 012.363 2.8c.323.426.634.858.943 1.293l.507.717a.5.5 0 00.816 0l.746-1.05c.228-.322.463-.641.71-.956.821-1.065 1.695-2.06 2.52-2.976a5.876 5.876 0 00-.334-8.194zM8 9a2.5 2.5 0 110-5 2.5 2.5 0 010 5z"/><path d="M8 8a1.5 1.5 0 100-3 1.5 1.5 0 000 3z"/></g><defs><clipPath id="a"><path fill="#fff" d="M0 0H16V16H0z"/></clipPath></defs></svg>