<svg width="22" height="22" viewBox="0 0 22 22" fill="none" xmlns="http://www.w3.org/2000/svg">
<path d="M18 0.000114441C17.2089 0.000114441 16.4355 0.23471 15.7777 0.674236C15.1199 1.11376 14.6072 1.73848 14.3045 2.46938C14.0017 3.20028 13.9225 4.00455 14.0769 4.78048C14.2312 5.5564 14.6122 6.26913 15.1716 6.82854C15.731 7.38795 16.4437 7.76892 17.2196 7.92326C17.9956 8.0776 18.7998 7.99838 19.5307 7.69563C20.2616 7.39288 20.8864 6.88019 21.3259 6.2224C21.7654 5.5646 22 4.79124 22 4.00011C22 2.93925 21.5786 1.92183 20.8284 1.17169C20.0783 0.421542 19.0609 0.000114441 18 0.000114441ZM18 6.00011C17.6044 6.00011 17.2178 5.88282 16.8889 5.66305C16.56 5.44329 16.3036 5.13093 16.1522 4.76548C16.0009 4.40003 15.9613 3.9979 16.0384 3.60993C16.1156 3.22197 16.3061 2.86561 16.5858 2.5859C16.8655 2.3062 17.2219 2.11571 17.6098 2.03854C17.9978 1.96137 18.3999 2.00098 18.7654 2.15236C19.1308 2.30373 19.4432 2.56008 19.6629 2.88897C19.8827 3.21787 20 3.60455 20 4.00011C20 4.53055 19.7893 5.03926 19.4142 5.41433C19.0391 5.7894 18.5304 6.00011 18 6.00011Z" fill="#B0ACB3"/>
<path d="M18.0001 9.99991C17.7349 9.99991 17.4806 10.1053 17.293 10.2928C17.1055 10.4803 17.0001 10.7347 17.0001 10.9999V19.9999H2.00012V4.99994H11.0001C11.2653 4.99994 11.5197 4.89458 11.7072 4.70705C11.8948 4.51951 12.0001 4.26516 12.0001 3.99994C12.0001 3.73473 11.8948 3.48037 11.7072 3.29284C11.5197 3.1053 11.2653 2.99995 11.0001 2.99995H1.00012C0.734906 2.99995 0.480552 3.1053 0.293015 3.29284C0.105479 3.48037 0.00012207 3.73473 0.00012207 3.99994V20.9999C0.00012207 21.2651 0.105479 21.5194 0.293015 21.707C0.480552 21.8945 0.734906 21.9999 1.00012 21.9999H18.0001C18.2653 21.9999 18.5197 21.8945 18.7072 21.707C18.8948 21.5194 19.0001 21.2651 19.0001 20.9999V10.9999C19.0001 10.7347 18.8948 10.4803 18.7072 10.2928C18.5197 10.1053 18.2653 9.99991 18.0001 9.99991Z" fill="#B0ACB3"/>
</svg>
