<svg width="22" height="22" viewBox="0 0 22 22" fill="none" xmlns="http://www.w3.org/2000/svg">
<path d="M19 17H8.00002C7.7348 17 7.48044 16.8946 7.29291 16.7071C7.10537 16.5196 7.00002 16.2652 7.00002 16C7.00002 15.7348 7.10537 15.4804 7.29291 15.2929C7.48044 15.1054 7.7348 15 8.00002 15H19C19.2277 15.0002 19.4486 14.9227 19.6262 14.7803C19.8039 14.638 19.9276 14.4392 19.977 14.217L21.977 5.217C22.0095 5.07075 22.0088 4.91906 21.9748 4.77314C21.9408 4.62723 21.8744 4.49081 21.7806 4.37398C21.6869 4.25715 21.568 4.16288 21.4329 4.09815C21.2978 4.03342 21.1498 3.99988 21 4H5.71902L4.97502 0.775C4.92412 0.554585 4.79999 0.357939 4.6229 0.217177C4.44581 0.076415 4.22623 -0.000144842 4.00002 2.05722e-07H1.00002C0.734799 2.05722e-07 0.480445 0.105357 0.292908 0.292893C0.105372 0.48043 1.52588e-05 0.734784 1.52588e-05 1C1.52588e-05 1.26522 0.105372 1.51957 0.292908 1.70711C0.480445 1.89464 0.734799 2 1.00002 2H3.20002L5.93502 13.834C5.49979 14.2462 5.19838 14.7797 5.06982 15.3652C4.94127 15.9507 4.9915 16.5613 5.214 17.1179C5.4365 17.6746 5.82103 18.1516 6.31777 18.4871C6.8145 18.8227 7.40056 19.0014 8.00002 19H19C19.2652 19 19.5196 18.8947 19.7071 18.7071C19.8947 18.5196 20 18.2652 20 18C20 17.7348 19.8947 17.4804 19.7071 17.2929C19.5196 17.1054 19.2652 17 19 17ZM19.753 6L18.2 13H7.80002L6.18002 6H19.753Z" fill="#B0ACB3"/>
<path d="M9 22C9.55228 22 10 21.5523 10 21C10 20.4477 9.55228 20 9 20C8.44771 20 8 20.4477 8 21C8 21.5523 8.44771 22 9 22Z" fill="#B0ACB3"/>
<path d="M17 22C17.5523 22 18 21.5523 18 21C18 20.4477 17.5523 20 17 20C16.4477 20 16 20.4477 16 21C16 21.5523 16.4477 22 17 22Z" fill="#B0ACB3"/>
</svg>
