<svg width="24" height="24" fill="none" xmlns="http://www.w3.org/2000/svg"><g clip-path="url(#a)"><path d="M22.526 16.95c-.061-.049-4.526-3.267-5.752-3.036-.585.104-.919.502-1.59 1.301-.108.13-.368.438-.57.658A10.275 10.275 0 018.131 9.39c.221-.202.53-.462.662-.573.795-.667 1.195-1.002 1.298-1.588.213-1.215-3.003-5.711-3.037-5.751A1.717 1.717 0 005.775.75C4.471.75.75 5.578.75 6.39c0 .048.068 4.851 5.991 10.876 6.019 5.916 10.821 5.984 10.868 5.984.814 0 5.641-3.721 5.641-5.025a1.712 1.712 0 00-.724-1.275z" fill="#309F5F"/></g><defs><clipPath id="a"><path fill="#fff" d="M0 0H24V24H0z"/></clipPath></defs></svg>