<svg width="20" height="22" viewBox="0 0 20 22" fill="none" xmlns="http://www.w3.org/2000/svg">
<path d="M13.7 10.717C14.6839 9.94763 15.4031 8.89041 15.7575 7.69276C16.1118 6.49511 16.0836 5.21673 15.6767 4.03589C15.2698 2.85506 14.5046 1.83063 13.4877 1.10546C12.4708 0.380285 11.253 -0.00947571 10.004 -0.00947571C8.75503 -0.00947571 7.53719 0.380285 6.52031 1.10546C5.50342 1.83063 4.73819 2.85506 4.33131 4.03589C3.92443 5.21673 3.89619 6.49511 4.25053 7.69276C4.60487 8.89041 5.32413 9.94763 6.308 10.717C4.44917 11.4566 2.85467 12.7363 1.73027 14.391C0.605868 16.0457 0.00318499 17.9994 0 20V21C0 21.2652 0.105357 21.5196 0.292893 21.7071C0.48043 21.8946 0.734784 22 1 22H19C19.2652 22 19.5196 21.8946 19.7071 21.7071C19.8946 21.5196 20 21.2652 20 21V20C19.9975 18.0003 19.3959 16.0473 18.273 14.3927C17.1501 12.7381 15.5573 11.4579 13.7 10.717ZM6 6C6 5.20887 6.2346 4.43551 6.67412 3.77772C7.11365 3.11992 7.73836 2.60723 8.46927 2.30448C9.20017 2.00173 10.0044 1.92252 10.7804 2.07686C11.5563 2.2312 12.269 2.61216 12.8284 3.17157C13.3878 3.73098 13.7688 4.44371 13.9231 5.21964C14.0775 5.99556 13.9983 6.79983 13.6955 7.53073C13.3928 8.26163 12.8801 8.88635 12.2223 9.32587C11.5645 9.7654 10.7911 9.99999 10 9.99999C8.93913 9.99999 7.92172 9.57857 7.17157 8.82842C6.42143 8.07828 6 7.06086 6 6ZM2 20C2 17.8783 2.84285 15.8434 4.34315 14.3431C5.84344 12.8428 7.87827 12 10 12C12.1217 12 14.1566 12.8428 15.6569 14.3431C17.1571 15.8434 18 17.8783 18 20H2Z" fill="#B0ACB3"/>
</svg>
