<svg width="14" height="14" viewBox="0 0 14 14" fill="none" xmlns="http://www.w3.org/2000/svg">
<path d="M7.29499 1.06499L9.07999 4.68499C9.10341 4.73244 9.13789 4.77356 9.18053 4.80489C9.22317 4.83621 9.27272 4.85683 9.32499 4.86499L13.325 5.44499C13.3837 5.45603 13.4383 5.4828 13.483 5.52244C13.5277 5.56208 13.5608 5.6131 13.5787 5.67007C13.5967 5.72704 13.5989 5.78782 13.585 5.84592C13.5711 5.90403 13.5418 5.95728 13.5 5.99999L10.61 8.81499C10.572 8.85211 10.5435 8.89786 10.527 8.94835C10.5104 8.99884 10.5063 9.05258 10.515 9.10499L11.195 13.105C11.208 13.1684 11.2021 13.2343 11.1779 13.2944C11.1538 13.3545 11.1124 13.4061 11.0591 13.4429C11.0058 13.4797 10.9429 13.5 10.8781 13.5012C10.8134 13.5025 10.7497 13.4847 10.695 13.45L7.12499 11.57C7.07791 11.5455 7.02559 11.5326 6.97249 11.5326C6.9194 11.5326 6.86708 11.5455 6.81999 11.57L3.27499 13.435C3.2203 13.4697 3.15661 13.4875 3.09186 13.4862C3.0271 13.485 2.96415 13.4647 2.91085 13.4279C2.85754 13.3911 2.81624 13.3395 2.79208 13.2794C2.76792 13.2193 2.76198 13.1534 2.77499 13.09L3.45499 9.08999C3.46367 9.03758 3.45957 8.98384 3.44303 8.93335C3.42649 8.88286 3.398 8.83711 3.35999 8.79999L0.499994 5.99999C0.456782 5.9571 0.42628 5.90308 0.411864 5.84393C0.397448 5.78477 0.399679 5.72278 0.418312 5.66481C0.436944 5.60684 0.471251 5.55516 0.517435 5.51548C0.56362 5.4758 0.619881 5.44968 0.679994 5.43999L4.67999 4.85999C4.73227 4.85183 4.78182 4.83121 4.82446 4.79989C4.8671 4.76856 4.90158 4.72744 4.92499 4.67999L6.70999 1.05999C6.73836 1.00679 6.78077 0.962372 6.8326 0.931568C6.88443 0.900764 6.94372 0.884751 7.00401 0.885266C7.0643 0.885781 7.1233 0.902806 7.1746 0.934491C7.2259 0.966176 7.26754 1.01131 7.29499 1.06499Z" fill="#FF9548"/>
</svg>
